<svg id="svg" version="1.1" xmlns="http://www.w3.org/2000/svg" xmlns:xlink="http://www.w3.org/1999/xlink" width="400" height="338.2" viewBox="0, 0, 400,338.2"><g id="svgg"><path id="path0" d="M174.200 174.100 L 174.200 181.600 174.997 181.600 L 175.794 181.600 175.847 175.901 L 175.900 170.202 178.631 174.851 C 182.202 180.928,181.618 180.929,185.176 174.837 L 187.900 170.175 187.953 175.887 L 188.006 181.600 188.803 181.600 L 189.600 181.600 189.600 174.100 L 189.600 166.600 188.939 166.600 C 188.285 166.600,188.246 166.655,185.201 171.912 C 183.508 174.833,182.061 177.262,181.984 177.310 C 181.907 177.357,180.426 174.967,178.691 171.998 C 175.560 166.638,175.534 166.600,174.869 166.600 L 174.200 166.600 174.200 174.100 M194.400 174.100 L 194.400 181.600 195.195 181.600 L 195.990 181.600 196.045 178.450 L 196.100 175.300 199.950 175.246 L 203.800 175.191 203.800 174.496 L 203.800 173.800 199.895 173.800 L 195.989 173.800 196.045 170.950 L 196.100 168.100 200.450 168.046 L 204.800 167.992 204.800 167.296 L 204.800 166.600 199.600 166.600 L 194.400 166.600 194.400 174.100 " stroke="none" fill="#ecf6fa" fill-rule="evenodd"></path><path id="path1" d="M121.169 91.215 C 113.467 92.032,106.750 98.050,104.871 105.819 C 104.533 107.216,104.507 110.168,104.406 158.000 C 104.307 205.485,104.278 208.763,103.952 209.700 C 103.350 211.430,102.633 212.434,97.300 219.002 C 90.582 227.278,91.100 226.216,91.100 231.695 C 91.100 239.960,93.797 244.420,100.085 246.552 L 101.700 247.100 199.900 247.100 L 298.100 247.100 299.600 246.635 C 306.257 244.573,309.138 239.703,308.970 230.797 C 308.884 226.256,309.361 227.181,303.192 219.600 C 297.915 213.115,297.287 212.244,296.481 210.300 L 295.900 208.900 295.794 158.100 C 295.674 101.196,295.818 106.304,294.229 102.619 C 291.483 96.250,285.602 91.908,278.775 91.207 C 276.339 90.957,123.530 90.965,121.169 91.215 M276.400 159.000 L 276.400 207.800 200.000 207.800 L 123.600 207.800 123.600 159.000 L 123.600 110.200 200.000 110.200 L 276.400 110.200 276.400 159.000 M204.602 120.635 L 204.604 123.700 207.352 120.913 L 210.100 118.127 209.200 117.990 C 208.705 117.915,207.468 117.790,206.450 117.712 L 204.600 117.570 204.602 120.635 M209.747 124.353 L 204.600 129.503 204.600 132.500 L 204.600 135.498 211.889 128.211 C 215.897 124.204,219.137 120.860,219.088 120.781 C 219.012 120.658,216.542 119.711,215.297 119.327 C 214.969 119.226,213.936 120.162,209.747 124.353 M213.835 131.478 L 204.600 140.744 204.600 143.822 L 204.600 146.899 215.688 135.812 C 221.787 129.714,226.727 124.644,226.666 124.546 C 226.564 124.379,225.496 123.674,223.785 122.642 L 223.070 122.211 213.835 131.478 M192.200 124.525 C 161.951 129.071,149.211 166.103,170.257 188.311 C 193.277 212.603,233.538 197.724,235.907 164.050 L 236.052 162.000 217.026 162.000 L 198.000 162.000 198.000 143.100 L 198.000 124.200 196.050 124.220 C 194.978 124.230,193.245 124.368,192.200 124.525 M217.249 140.051 L 204.600 152.701 204.600 154.251 L 204.600 155.800 205.950 155.791 L 207.300 155.783 220.100 143.104 L 232.900 130.425 231.399 128.913 L 229.898 127.401 217.249 140.051 M224.000 144.700 L 212.901 155.800 215.901 155.800 L 218.902 155.800 228.182 146.518 L 237.463 137.235 237.193 136.582 C 236.869 135.800,235.423 133.600,235.233 133.600 C 235.159 133.600,230.104 138.595,224.000 144.700 M231.800 148.500 L 224.502 155.800 227.502 155.800 L 230.503 155.800 235.676 150.624 L 240.848 145.449 240.497 144.374 C 239.857 142.416,239.373 141.200,239.235 141.200 C 239.159 141.200,235.814 144.485,231.800 148.500 M239.000 152.902 L 236.100 155.809 239.200 155.755 L 242.300 155.700 242.254 153.586 C 242.229 152.423,242.139 151.140,242.054 150.733 L 241.900 149.994 239.000 152.902 M178.745 171.900 C 180.422 174.760,181.862 177.091,181.947 177.080 C 182.031 177.069,183.454 174.729,185.109 171.880 L 188.117 166.700 188.959 166.639 L 189.800 166.577 189.800 174.089 L 189.800 181.600 188.903 181.600 L 188.006 181.600 187.953 175.966 L 187.900 170.331 185.172 175.016 C 181.613 181.128,182.200 181.124,178.631 175.051 L 175.900 170.402 175.847 176.001 L 175.794 181.600 174.897 181.600 L 174.000 181.600 174.000 174.089 L 174.000 166.577 174.849 166.639 L 175.697 166.700 178.745 171.900 M204.800 167.400 L 204.800 168.200 200.500 168.200 L 196.200 168.200 196.200 171.000 L 196.200 173.800 200.000 173.800 L 203.800 173.800 203.800 174.600 L 203.800 175.400 200.000 175.400 L 196.200 175.400 196.200 178.500 L 196.200 181.600 195.300 181.600 L 194.400 181.600 194.400 174.100 L 194.400 166.600 199.600 166.600 L 204.800 166.600 204.800 167.400 M220.537 228.450 C 220.308 231.201,218.709 233.374,216.200 234.343 C 215.130 234.757,187.679 234.999,185.225 234.617 C 181.846 234.091,179.747 231.831,179.460 228.408 L 179.342 227.000 200.000 227.000 L 220.658 227.000 220.537 228.450 " stroke="none" fill="#1ca4cc" fill-rule="evenodd"></path><path id="path2" d="M174.091 174.000 C 174.091 178.125,174.117 179.813,174.150 177.750 C 174.182 175.688,174.182 172.313,174.150 170.250 C 174.117 168.188,174.091 169.875,174.091 174.000 M189.691 174.100 C 189.691 178.280,189.717 180.018,189.750 177.963 C 189.782 175.908,189.782 172.488,189.750 170.363 C 189.717 168.238,189.691 169.920,189.691 174.100 M196.088 168.260 C 196.033 168.403,196.016 169.731,196.050 171.210 L 196.113 173.900 196.156 171.054 L 196.200 168.208 200.450 168.150 L 204.700 168.092 200.444 168.046 C 197.102 168.010,196.166 168.056,196.088 168.260 M196.088 175.459 C 196.034 175.601,196.016 177.064,196.050 178.709 L 196.112 181.700 196.156 178.554 L 196.200 175.409 200.050 175.350 L 203.900 175.291 200.044 175.245 C 197.040 175.210,196.165 175.257,196.088 175.459 " stroke="none" fill="#aadceb" fill-rule="evenodd"></path><path id="path3" d="" stroke="none" fill="#7ecce0" fill-rule="evenodd"></path><path id="path4" d="" stroke="none" fill="#54bcd6" fill-rule="evenodd"></path></g></svg>